<svg id="Capa_1" data-name="Capa 1" xmlns="http://www.w3.org/2000/svg" viewBox="0 0 432.45 417.43"><title>conejo</title><g id="Conejo"><path d="M521.5,360.5c3.27,15-17.32,17.91-59,27-22.25,4.85-30.28,3.91-45.29,1.42a68.11,68.11,0,0,1-8.3-1.88h0a42,42,0,0,1-14.29-9.76,9.79,9.79,0,0,1-.79-2.26,9.5,9.5,0,0,1-.22-2.39l-2.22,1.16h0a279.43,279.43,0,0,1-39.56,16.53,10.48,10.48,0,0,1,1.64,3.74c3.27,15-27.88,34.49-69.56,43.58-40.22,8.77-75.56,4.64-80.92-9.11C195.8,422.09,192.6,412,193,399.89c-32.81-4.66-57.2-20.13-61.53-42.4a36.83,36.83,0,0,1-.66-6.16,56.78,56.78,0,0,1-3.44-10.57C115.86,287.88,183.28,228.26,278,207.6c40.43-8.82,79.29-9.11,111.46-2.43a21.21,21.21,0,0,0,.5-9.39,67.24,67.24,0,0,1-23.53-37.9c-10.38-2.17-20.38-4.27-28.29-5.36-31.65-4.35-115.34-45.46-72.44-59.94,25.41-8.57,72.88,5,107.66,17.79q1.28-2.28,2.73-4.46c-4.95-2.26-9.59-4.3-13.68-5.88C332.6,88.48,260.67,29.16,305.75,25,336.82,22.11,390,55.24,420.4,76.79c35.56-6.4,78.47,18.8,94.1,51.71,20.31,42.77,5,85-56.74,79.8-1.93,6.26-10.26,15.2-1.26,27.2,14,18,13,21,13.83,30.44,1.47,16.58-.36,33.14-10.23,49.35A141.54,141.54,0,0,1,459,332.44c1.45-.35,2.9-.69,4.37-1C505.06,322.34,518.23,345.52,521.5,360.5Z" transform="translate(-90.5 -24.81)" style="fill:#a67c52"/><path d="M354.49,245.84l-111,65.66s-83.63-36.14-75-74C173,217.64,285.78,157,312.57,155.07,335.37,153.43,354.49,245.84,354.49,245.84Z" transform="translate(-90.5 -24.81)" style="fill:aqua;stroke:aqua;stroke-linecap:round;stroke-linejoin:round;stroke-width:4px"/><circle cx="36" cy="323.69" r="36" style="fill:#ccc"/><polyline points="189.5 266.19 189.5 264.19 226.5 243.43 297.5 350.19 270.5 362.19 189.5 267.19" style="fill:aqua;stroke:aqua;stroke-linecap:round;stroke-linejoin:round;stroke-width:4px"/></g></svg>